<svg width="19" height="20" viewBox="0 0 19 20" fill="none" xmlns="http://www.w3.org/2000/svg">
<path fill-rule="evenodd" clip-rule="evenodd" d="M9.14302 17.0829C9.33185 17.3107 9.66815 17.3107 9.85698 17.0829C10.9616 15.7505 14.25 11.4522 14.25 7.5C14.25 4.73858 12.1234 2.5 9.5 2.5C6.87665 2.5 4.75 4.73858 4.75 7.5C4.75 11.4522 8.0384 15.7505 9.14302 17.0829Z" stroke="white" stroke-width="1.5"/>
<path fill-rule="evenodd" clip-rule="evenodd" d="M9.50033 9.16659C10.3748 9.16659 11.0837 8.42039 11.0837 7.49992C11.0837 6.57944 10.3748 5.83325 9.50033 5.83325C8.62587 5.83325 7.91699 6.57944 7.91699 7.49992C7.91699 8.42039 8.62587 9.16659 9.50033 9.16659Z" stroke="white" stroke-width="1.5"/>
</svg>
