<svg width="20" height="20" viewBox="0 0 19 20" fill="none" xmlns="http://www.w3.org/2000/svg">
<g clip-path="url(#clip0_399_271)">
<path d="M8.77868 3.125C9.34844 3.2441 9.87207 3.54266 10.2826 3.98246C10.693 4.42226 10.9717 4.98329 11.0828 5.59375M8.77868 0.625C9.96242 0.765898 11.0663 1.33386 11.909 2.23563C12.7517 3.1374 13.2832 4.31938 13.4162 5.5875M12.8328 10.575V12.45C12.8335 12.6241 12.8002 12.7964 12.7351 12.9558C12.6701 13.1153 12.5746 13.2585 12.4549 13.3762C12.3352 13.4938 12.1938 13.5834 12.04 13.6392C11.8861 13.695 11.723 13.7157 11.5612 13.7C9.76617 13.491 8.04193 12.8338 6.52701 11.7813C5.11758 10.8217 3.92263 9.54136 3.02701 8.03125C2.04117 6.40075 1.42766 4.54437 1.23618 2.6125C1.2216 2.43967 1.24077 2.26548 1.29247 2.10102C1.34417 1.93656 1.42726 1.78543 1.53646 1.65726C1.64566 1.5291 1.77857 1.42669 1.92672 1.35658C2.07488 1.28646 2.23505 1.25016 2.39701 1.25H4.14701C4.43011 1.24701 4.70456 1.35442 4.91921 1.55221C5.13386 1.74999 5.27406 2.02465 5.31368 2.325C5.38754 2.92504 5.52453 3.5142 5.72201 4.08125C5.8005 4.30495 5.81748 4.54807 5.77096 4.7818C5.72444 5.01553 5.61635 5.23007 5.45951 5.4L4.71868 6.19375C5.54909 7.75847 6.75828 9.05403 8.21868 9.94375L8.95951 9.15C9.11812 8.98196 9.31835 8.86616 9.5365 8.81631C9.75465 8.76646 9.98156 8.78466 10.1903 8.86875C10.7196 9.08034 11.2695 9.22711 11.8295 9.30625C12.1129 9.34908 12.3717 9.502 12.5567 9.73593C12.7417 9.96986 12.8399 10.2685 12.8328 10.575Z" stroke="white" stroke-width="1.5" stroke-linecap="round" stroke-linejoin="round"/>
</g>
<defs>
<clipPath id="clip0_399_271">
<rect width="19" height="20" fill="white"/>
</clipPath>
</defs>
</svg>
